# Blender v2.91.0 OBJ File: ''
# www.blender.org
mtllib Flag.mtl
o Flag
v 0.000000 -1.000000 -0.050000
v 0.000000 1.000000 -0.050000
v 0.035355 -1.000000 -0.035355
v 0.035355 1.000000 -0.035355
v 0.050000 -1.000000 0.000000
v 0.050000 1.000000 0.000000
v 0.035355 -1.000000 0.035355
v 0.035355 1.000000 0.035355
v -0.000000 -1.000000 0.050000
v -0.000000 1.000000 0.050000
v -0.035355 -1.000000 0.035355
v -0.035355 1.000000 0.035355
v -0.050000 -1.000000 -0.000000
v -0.050000 1.000000 -0.000000
v -0.035355 -1.000000 -0.035355
v -0.035355 1.000000 -0.035355
v 0.000000 0.920000 0.000000
v 0.057888 0.964223 0.042058
v -0.022111 0.964223 0.068051
v -0.071554 0.964223 0.000000
v -0.022111 0.964223 -0.068051
v 0.057888 0.964223 -0.042058
v 0.022111 1.035777 0.068051
v -0.057888 1.035777 0.042058
v -0.057888 1.035777 -0.042058
v 0.022111 1.035777 -0.068051
v 0.071554 1.035777 0.000000
v 0.000000 1.080000 0.000000
v 0.000000 0.968297 -0.007570
v -0.000000 0.349331 -0.007570
v 0.000000 0.968297 -0.832858
v -0.000000 0.349331 -0.832858
v -0.000000 0.968297 -0.832858
v -0.000000 0.349331 -0.832858
v 0.000000 0.968297 -0.007570
v 0.000000 0.349331 -0.007570
vt 0.000000 1.000000
vt 0.000000 0.250000
vt 1.000000 0.250000
vt 1.000000 1.000000
vt 0.000000 1.000000
vt 0.000000 0.250000
vt 1.000000 0.250000
vt 1.000000 1.000000
vt 0.270904 0.124238
vt 0.270904 0.220683
vt 0.246793 0.220683
vt 0.246793 0.124238
vt 0.222682 0.220683
vt 0.222682 0.124238
vt 0.198570 0.220683
vt 0.198570 0.124238
vt 0.174459 0.220683
vt 0.174459 0.124238
vt 0.150347 0.220683
vt 0.150347 0.124238
vt 0.126236 0.220683
vt 0.126236 0.124238
vt 0.102125 0.220683
vt 0.102125 0.124238
vt 0.078013 0.220683
vt 0.078013 0.124238
vt 0.222682 0.122309
vt 0.255416 0.108749
vt 0.268975 0.076015
vt 0.255416 0.043280
vt 0.222682 0.029721
vt 0.189947 0.043280
vt 0.176388 0.076015
vt 0.189947 0.108749
vt 0.901703 0.047774
vt 0.869756 0.103110
vt 0.933651 0.103110
vt 0.837808 0.047774
vt 0.805860 0.103110
vt 0.646122 0.047774
vt 0.614174 0.103110
vt 0.678070 0.103110
vt 0.710017 0.047774
vt 0.741965 0.103110
vt 0.773913 0.047774
vt 0.837808 0.158445
vt 0.901703 0.158445
vt 0.646122 0.158445
vt 0.710017 0.158445
vt 0.773913 0.158445
vt 0.965599 0.158445
vt 0.869756 0.213781
vt 0.933651 0.213781
vt 0.678070 0.213781
vt 0.741965 0.213781
vt 0.805860 0.213781
vn 1.0000 -0.0000 0.0000
vn -1.0000 -0.0000 0.0000
vn 0.0000 -0.6302 -0.7764
vn 0.0000 0.0000 -1.0000
vn 0.7071 0.0000 -0.7071
vn 0.5490 -0.6302 -0.5490
vn 0.7764 -0.6302 0.0000
vn 0.7071 0.0000 0.7071
vn 0.5490 -0.6302 0.5490
vn 0.0000 0.0000 1.0000
vn 0.0000 -0.6302 0.7764
vn -0.7071 0.0000 0.7071
vn -0.5490 -0.6302 0.5490
vn -0.7764 -0.6302 0.0000
vn -0.7071 0.0000 -0.7071
vn -0.5490 -0.6302 -0.5490
vn 0.0000 -1.0000 0.0000
vn 0.7236 -0.4472 0.5257
vn -0.2764 -0.4472 0.8506
vn 0.7236 -0.4472 -0.5257
vn -0.8944 -0.4472 0.0000
vn -0.2764 -0.4472 -0.8506
vn 0.8944 0.4472 0.0000
vn 0.2764 0.4472 0.8506
vn -0.7236 0.4472 0.5257
vn -0.7236 0.4472 -0.5257
vn 0.2764 0.4472 -0.8506
vn 0.0000 1.0000 0.0000
usemtl Material.001
s off
f 29/1/1 30/2/1 32/3/1 31/4/1
f 33/5/2 34/6/2 36/7/2 35/8/2
s 1
f 1/9/3 2/10/4 4/11/5 3/12/6
f 3/12/6 4/11/5 6/13/1 5/14/7
f 5/14/7 6/13/1 8/15/8 7/16/9
f 7/16/9 8/15/8 10/17/10 9/18/11
f 9/18/11 10/17/10 12/19/12 11/20/13
f 11/20/13 12/19/12 14/21/2 13/22/14
f 13/22/14 14/21/2 16/23/15 15/24/16
f 15/24/16 16/23/15 2/25/4 1/26/3
f 1/27/3 3/28/6 5/29/7 7/30/9 9/31/11 11/32/13 13/33/14 15/34/16
f 17/35/17 18/36/18 19/37/19
f 18/36/18 17/38/17 22/39/20
f 17/40/17 19/41/19 20/42/21
f 17/43/17 20/42/21 21/44/22
f 17/45/17 21/44/22 22/39/20
f 18/36/18 22/39/20 27/46/23
f 19/37/19 18/36/18 23/47/24
f 20/42/21 19/41/19 24/48/25
f 21/44/22 20/42/21 25/49/26
f 22/39/20 21/44/22 26/50/27
f 18/36/18 27/46/23 23/47/24
f 19/37/19 23/47/24 24/51/25
f 20/42/21 24/48/25 25/49/26
f 21/44/22 25/49/26 26/50/27
f 22/39/20 26/50/27 27/46/23
f 23/47/24 27/46/23 28/52/28
f 24/51/25 23/47/24 28/53/28
f 25/49/26 24/48/25 28/54/28
f 26/50/27 25/49/26 28/55/28
f 27/46/23 26/50/27 28/56/28
